<!DOCTYPE svg PUBLIC "-//W3C//DTD SVG 20010904//EN" "http://www.w3.org/TR/2001/REC-SVG-20010904/DTD/svg10.dtd">
<svg version="1.0" xmlns="http://www.w3.org/2000/svg" width="120px" height="120px" viewBox="0 0 1200 1200" preserveAspectRatio="xMidYMid meet">
<g id="layer101" fill="#c8aa6e" stroke="none">
 <path d="M580 1091 c0 -5 -62 -71 -137 -146 l-137 -137 -18 -106 c-21 -125 -59 -211 -118 -268 -57 -55 -35 -64 47 -18 80 45 153 110 199 179 l34 50 0 -49 c0 -76 -29 -214 -60 -286 -35 -80 -80 -194 -80 -203 0 -21 21 1 60 61 24 37 56 86 72 110 15 24 28 46 28 49 0 3 14 28 31 56 95 154 152 338 152 492 1 113 -26 217 -56 223 -9 2 -17 -1 -17 -7z"/>
 <path d="M730 906 c0 -61 35 -178 85 -281 40 -83 115 -170 185 -215 66 -42 84 -28 30 24 -56 54 -97 144 -115 251 -8 50 -17 99 -20 110 -5 23 -138 165 -154 165 -7 0 -11 -22 -11 -54z"/>
 <path d="M662 607 l-34 -102 25 -55 c39 -87 211 -350 229 -350 12 0 10 15 -7 52 -60 134 -104 271 -114 358 -13 106 -39 200 -55 200 -6 0 -26 -46 -44 -103z"/>
 </g>

</svg>