<!DOCTYPE svg PUBLIC "-//W3C//DTD SVG 20010904//EN" "http://www.w3.org/TR/2001/REC-SVG-20010904/DTD/svg10.dtd">
<svg version="1.0" xmlns="http://www.w3.org/2000/svg" width="120px" height="120px" viewBox="0 0 1200 1200" preserveAspectRatio="xMidYMid meet">
<g id="layer101" fill="#c8aa6e" stroke="none">
 <path d="M520 1049 c-36 -27 -67 -54 -68 -59 -2 -6 8 -65 21 -133 14 -67 37 -178 51 -247 14 -69 26 -133 26 -143 0 -20 20 -23 38 -5 9 9 15 9 24 0 18 -18 38 -15 38 5 0 10 12 74 26 143 60 294 74 366 74 376 0 13 -135 114 -152 114 -7 -1 -42 -23 -78 -51z"/>
 <path d="M325 644 c-44 -18 -81 -37 -82 -41 -2 -5 17 -37 42 -71 l45 -62 -45 0 c-69 0 -172 -47 -267 -123 -42 -33 -22 -37 180 -37 l198 0 53 54 54 55 -18 73 c-30 124 -51 183 -66 184 -8 1 -50 -13 -94 -32z"/>
 <path d="M761 657 c-10 -25 -20 -63 -47 -170 l-17 -68 54 -55 53 -54 198 0 c202 0 222 4 181 37 -96 76 -199 123 -268 123 l-45 0 45 62 c25 34 44 66 42 71 -2 7 -163 76 -180 77 -4 0 -11 -10 -16 -23z"/>
 <path d="M560 358 c-89 -106 -140 -173 -140 -185 0 -8 7 -27 15 -43 l16 -30 147 0 148 0 17 29 c25 42 22 51 -32 118 -82 103 -125 153 -131 153 -3 0 -21 -19 -40 -42z"/>
 </g>

</svg>