<!DOCTYPE svg PUBLIC "-//W3C//DTD SVG 20010904//EN" "http://www.w3.org/TR/2001/REC-SVG-20010904/DTD/svg10.dtd">
<svg version="1.0" xmlns="http://www.w3.org/2000/svg" width="120px" height="120px" viewBox="0 0 1200 1200" preserveAspectRatio="xMidYMid meet">
<g id="layer101" fill="#c8aa6e" stroke="none">
 <path d="M240 1062 c0 -5 31 -41 70 -80 l69 -72 266 0 265 0 0 -263 0 -262 70 -73 c38 -39 74 -72 80 -72 7 0 9 130 8 413 l-3 412 -412 3 c-227 1 -413 -2 -413 -6z"/>
 <path d="M135 989 c-3 -8 -4 -203 -3 -434 l3 -420 420 -3 c231 -1 426 0 434 3 10 4 -12 33 -74 95 l-90 90 -252 0 -253 0 0 253 0 252 -90 90 c-62 62 -91 84 -95 74z"/>
 <path d="M490 620 l0 -130 130 0 130 0 0 130 0 130 -130 0 -130 0 0 -130z"/>
 </g>

</svg>